<svg xmlns="http://www.w3.org/2000/svg" width="30.001" height="28" viewBox="0 0 30.001 28">
  <g id="Group_189" data-name="Group 189" transform="translate(0 -2)">
    <g id="Intersection_1" data-name="Intersection 1" transform="translate(-578 1270)" fill="none">
      <path d="M578-1240v-1.254A16.036,16.036,0,0,1,593-1252a16.038,16.038,0,0,1,15,10.746V-1240Z" stroke="none"/>
      <path d="M 605.5195922851562 -1242.000244140625 C 604.4869995117188 -1244.134643554688 602.9620361328125 -1245.9697265625 601.050048828125 -1247.3642578125 C 598.68603515625 -1249.088500976562 595.9024658203125 -1249.999877929688 593.0001220703125 -1249.999877929688 C 590.097412109375 -1249.999877929688 587.313720703125 -1249.088500976562 584.9498901367188 -1247.364501953125 C 583.0379028320312 -1245.969848632812 581.5130004882812 -1244.134765625 580.4805297851562 -1242.000244140625 L 605.5195922851562 -1242.000244140625 M 608.0004272460938 -1240.000244140625 L 577.9998168945312 -1240.000244140625 L 577.9998168945312 -1241.25439453125 C 580.264404296875 -1247.529541015625 586.1257934570312 -1251.999877929688 593.0001220703125 -1251.999877929688 C 599.8737182617188 -1251.999877929688 605.7356567382812 -1247.529174804688 608.0004272460938 -1241.254150390625 L 608.0004272460938 -1240.000244140625 Z" stroke="none" fill="#fff"/>
    </g>
    <g id="Ellipse_116" data-name="Ellipse 116" transform="translate(8 2)" fill="none" stroke="#fff" stroke-width="2">
      <circle cx="7" cy="7" r="7" stroke="none"/>
      <circle cx="7" cy="7" r="6" fill="none"/>
    </g>
  </g>
</svg>
