<svg xmlns="http://www.w3.org/2000/svg" width="29.395" height="30.002" viewBox="0 0 29.395 30.002">
  <g id="Group_211" data-name="Group 211" transform="translate(-441.667 4492.792)">
    <g id="Intersection_5" data-name="Intersection 5" transform="translate(441.667 -4477.272)">
      <path id="Path_17" data-name="Path 17" d="M0,8.994a16.469,16.469,0,0,1,29.395.09c-2.226,3.151-7.952,5.4-14.666,5.4C7.951,14.482,2.18,12.193,0,8.994Z" transform="translate(0 0)" fill="none"/>
      <path id="Path_18" data-name="Path 18" d="M14.729,12.425a23.948,23.948,0,0,0,8.3-1.385,12.036,12.036,0,0,0,3.867-2.22A14.411,14.411,0,0,0,2.5,8.757a11.819,11.819,0,0,0,3.871,2.258,23.886,23.886,0,0,0,8.361,1.41m0,2.054C7.951,14.479,2.179,12.193,0,8.994a16.469,16.469,0,0,1,29.395.09C27.169,12.236,21.443,14.479,14.729,14.479Z" transform="translate(0 0)" fill="#fff"/>
    </g>
    <g id="Ellipse_155" data-name="Ellipse 155" transform="translate(450.688 -4492.792)" fill="none" stroke="#fff" stroke-width="2">
      <circle cx="6.163" cy="6.163" r="6.163" stroke="none"/>
      <circle cx="6.163" cy="6.163" r="5.163" fill="none"/>
    </g>
  </g>
</svg>
