<svg xmlns="http://www.w3.org/2000/svg" xmlns:xlink="http://www.w3.org/1999/xlink" width="30" height="30" viewBox="0 0 30 30">
  <defs>
    <clipPath id="clip-Course_overview">
      <rect width="30" height="30"/>
    </clipPath>
  </defs>
  <g id="Course_overview" data-name="Course overview" clip-path="url(#clip-Course_overview)">
    <rect width="30" height="30"/>
    <g id="Group_191" data-name="Group 191">
      <path id="notification_1_" data-name="notification (1)" d="M82.815,27.381a5.59,5.59,0,0,1-1.79-2.28c-1.542-3.053-1.866-7.355-1.866-10.426,0-.013,0-.027,0-.04a10.059,10.059,0,0,0-6.332-9.126,11.294,11.294,0,0,0-8.783,0,10.057,10.057,0,0,0-6.333,9.166c0,3.071-.324,7.372-1.866,10.426a5.59,5.59,0,0,1-1.79,2.28.992.992,0,0,0-.593,1.149,1.118,1.118,0,0,0,1.114.812h9.142c.045,2.919,1.592,5.281,4.718,5.281s4.673-2.362,4.718-5.281h9.142a1.119,1.119,0,0,0,1.114-.812A.993.993,0,0,0,82.815,27.381Zm-14.381,5.16c-1.9,0-2.452-1.428-2.5-3.2h4.994C70.886,31.113,70.335,32.541,68.434,32.541Zm4.473-5.281h-15.8a10.731,10.731,0,0,0,.582-.956c1.489-2.746,2.244-6.659,2.244-11.629a8.52,8.52,0,0,1,17.005,0c0,.013,0,.026,0,.038,0,4.951.759,8.849,2.244,11.587a10.733,10.733,0,0,0,.582.956Z" transform="translate(-53.434 -4.623)" fill="#fff"/>
    </g>
  </g>
</svg>
