<svg id="Laag_1" data-name="Laag 1" xmlns="http://www.w3.org/2000/svg" viewBox="0 0 20 19.17"><defs><style>.cls-1{fill:#25167a;}</style></defs><path class="cls-1" d="M20,2.61c-.11.19-.2.37-.3.54L17.82,6.37c-.09.16-.09.17-.26.09l-.88-.41A13.72,13.72,0,0,0,12.79,4.8a15.79,15.79,0,0,0-3.43-.17,14.51,14.51,0,0,0-5.77,1.6L3,6.48c-.08,0-.13,0-.18-.06C2.46,5.72,2,5,1.64,4.34c-.3-.52-.59-1-.88-1.57-.07-.13-.08-.14.05-.22.28-.17.56-.34.84-.49A19.51,19.51,0,0,1,11.08,0a19.73,19.73,0,0,1,6,1.22,20.79,20.79,0,0,1,2.62,1.22Z"/><path class="cls-1" d="M6.34,12.38a.41.41,0,0,1,0-.09L5.51,11a.13.13,0,0,1,0-.19l.23-.17A24.22,24.22,0,0,1,9.3,8.5l.57-.33A.42.42,0,0,0,10,8a.78.78,0,0,0-.15-.1A1.75,1.75,0,0,0,9,7.9a12.11,12.11,0,0,0-2.28.58A24.29,24.29,0,0,0,3.57,9.81c-.25.11-.51.22-.76.31a.32.32,0,0,1-.36,0,.3.3,0,0,1,0-.34c.12-.25.26-.51.4-.75s.39-.61.59-.92l0-.09c0-.11,0-.19-.12-.17a1,1,0,0,0-.3.1A4.64,4.64,0,0,0,2,8.6c-.48.4-.95.83-1.42,1.25L.43,10,0,9.6l.46-.44A14.49,14.49,0,0,1,3.64,6.84a10.07,10.07,0,0,1,2.29-.92,2,2,0,0,1,.77-.07c.12,0,.25.05.3.18a.3.3,0,0,1-.14.33,5.23,5.23,0,0,1-.56.4A12.12,12.12,0,0,0,4.82,7.83a6.75,6.75,0,0,0-.53.54.52.52,0,0,0-.11.19.14.14,0,0,0,0,.11s.08,0,.11,0l1.08-.44A18.43,18.43,0,0,1,9.54,7,14.09,14.09,0,0,1,11.7,6.8a13.84,13.84,0,0,1,1.44,0,1.93,1.93,0,0,1,1,.36c.34.24.33.57-.06.75a4.42,4.42,0,0,1-.78.25L10.64,9a7.07,7.07,0,0,0-1.52.66,1.55,1.55,0,0,0-.49.43l-.08.13q-.08.16.09.21a1,1,0,0,0,.29,0l1.24-.08a11.9,11.9,0,0,1,3.15.13,3.67,3.67,0,0,1,1.27.5,1,1,0,0,1,.49.93,2.11,2.11,0,0,1-.1.5,6.45,6.45,0,0,1-.6,1.31A26.57,26.57,0,0,1,12.11,17c-.49.63-1,1.25-1.51,1.87a2.64,2.64,0,0,1-.29.29,1.57,1.57,0,0,1-.12-.21L8,15.17c-.07-.12-.07-.15,0-.24s.45-.36.68-.54a17,17,0,0,0,2-1.72A8.06,8.06,0,0,0,11.2,12a.73.73,0,0,0,.1-.28.26.26,0,0,0-.2-.31,1.61,1.61,0,0,0-.37-.07A7.16,7.16,0,0,0,9,11.54a12.75,12.75,0,0,0-2,.56l-.57.25Z"/></svg>