<svg xmlns="http://www.w3.org/2000/svg" width="22.929" height="14.614" viewBox="0 0 22.929 14.614">
  <g id="eye" transform="translate(0 -92.835)">
    <g id="Group_215" data-name="Group 215" transform="translate(0 92.835)">
      <g id="Group_214" data-name="Group 214" transform="translate(0 0)">
        <path id="Path_31" data-name="Path 31" d="M22.783,99.7c-.2-.28-5.085-6.861-11.319-6.861S.35,99.416.146,99.7a.757.757,0,0,0,0,.892c.2.28,5.085,6.861,11.319,6.861s11.114-6.581,11.319-6.861A.756.756,0,0,0,22.783,99.7Zm-11.319,6.241c-4.592,0-8.568-4.368-9.746-5.8,1.176-1.429,5.144-5.795,9.746-5.795s8.568,4.367,9.746,5.8C20.034,101.572,16.066,105.937,11.464,105.937Z" transform="translate(0 -92.835)" fill="#25167a"/>
      </g>
    </g>
    <g id="Group_217" data-name="Group 217" transform="translate(6.929 95.607)">
      <g id="Group_216" data-name="Group 216">
        <path id="Path_32" data-name="Path 32" d="M159.257,154.725a4.535,4.535,0,1,0,4.535,4.535A4.541,4.541,0,0,0,159.257,154.725Zm0,7.559a3.024,3.024,0,1,1,3.024-3.024A3.027,3.027,0,0,1,159.257,162.284Z" transform="translate(-154.722 -154.725)" fill="#25167a"/>
      </g>
    </g>
  </g>
</svg>
