<svg xmlns="http://www.w3.org/2000/svg" width="22.93" height="19" viewBox="0 0 22.93 19">
  <g id="Group_219" data-name="Group 219" transform="translate(-2564 3406.773)">
    <path id="Subtraction_1" data-name="Subtraction 1" d="M11.464,17.6a10.4,10.4,0,0,1-4.432-1.062l1.15-1.15a8.571,8.571,0,0,0,3.282.7,10.475,10.475,0,0,0,6.158-2.361,21.138,21.138,0,0,0,3.589-3.433,20.651,20.651,0,0,0-4.123-3.811l1.094-1.094a21.581,21.581,0,0,1,4.6,4.457.755.755,0,0,1,0,.893C22.578,11.019,17.682,17.6,11.464,17.6ZM4.39,14.938h0a21.779,21.779,0,0,1-4.243-4.2.753.753,0,0,1,0-.892c.2-.28,5.079-6.861,11.318-6.861a10.189,10.189,0,0,1,4.007.871L14.3,5.025A8.338,8.338,0,0,0,11.464,4.5,10.475,10.475,0,0,0,5.307,6.858a21.064,21.064,0,0,0-3.588,3.433,20.993,20.993,0,0,0,3.76,3.557L4.39,14.937Zm7.075-.109A4.531,4.531,0,0,1,9.3,14.275l1.139-1.139a3.024,3.024,0,0,0,3.873-3.873l1.139-1.139a4.534,4.534,0,0,1-3.983,6.705ZM7.282,12.046h0A4.535,4.535,0,0,1,13.218,6.11L12.009,7.318A3.025,3.025,0,0,0,8.49,10.837L7.283,12.045Z" transform="translate(2564 -3406.985)" fill="#25167a"/>
    <path id="Path_33" data-name="Path 33" d="M2579.815-3389.528l16.454-16.454" transform="translate(-12.315 0.482)" fill="none" stroke="#25167a" stroke-width="1.8"/>
  </g>
</svg>
