<svg xmlns="http://www.w3.org/2000/svg" width="30" height="30.006" viewBox="0 0 30 30.006">
  <g id="instagram-sketched" transform="translate(-0.449)">
    <path id="Path_23" data-name="Path 23" d="M30.373,8.822a10.964,10.964,0,0,0-.7-3.64A7.686,7.686,0,0,0,25.285.791a10.992,10.992,0,0,0-3.64-.7C20.039.018,19.529,0,15.455,0S10.871.018,9.271.088a10.967,10.967,0,0,0-3.64.7A7.321,7.321,0,0,0,2.97,2.521,7.388,7.388,0,0,0,1.241,5.176a10.994,10.994,0,0,0-.7,3.64c-.076,1.606-.094,2.116-.094,6.19S.467,19.59.537,21.19a10.963,10.963,0,0,0,.7,3.64,7.685,7.685,0,0,0,4.39,4.39,10.994,10.994,0,0,0,3.64.7c1.6.071,2.11.088,6.184.088s4.584-.017,6.184-.088a10.961,10.961,0,0,0,3.64-.7,7.675,7.675,0,0,0,4.391-4.39,11,11,0,0,0,.7-3.64c.07-1.6.088-2.11.088-6.184S30.443,10.422,30.373,8.822Zm-2.7,12.251a8.224,8.224,0,0,1-.516,2.784,4.977,4.977,0,0,1-2.849,2.849,8.254,8.254,0,0,1-2.784.516c-1.583.071-2.057.088-6.061.088s-4.484-.017-6.061-.088a8.22,8.22,0,0,1-2.784-.516,4.617,4.617,0,0,1-1.723-1.12,4.665,4.665,0,0,1-1.12-1.723,8.255,8.255,0,0,1-.516-2.784c-.071-1.583-.088-2.058-.088-6.061s.017-4.484.088-6.061a8.22,8.22,0,0,1,.516-2.784A4.561,4.561,0,0,1,4.9,4.449,4.658,4.658,0,0,1,6.622,3.329a8.259,8.259,0,0,1,2.784-.516c1.583-.07,2.058-.088,6.061-.088s4.484.018,6.061.088a8.224,8.224,0,0,1,2.784.516,4.614,4.614,0,0,1,1.723,1.119,4.664,4.664,0,0,1,1.12,1.723,8.258,8.258,0,0,1,.516,2.784c.07,1.583.088,2.057.088,6.061S27.741,19.49,27.671,21.073Zm0,0" transform="translate(0)" fill="#fff"/>
    <path id="Path_24" data-name="Path 24" d="M132.657,124.5a7.708,7.708,0,1,0,7.708,7.708A7.71,7.71,0,0,0,132.657,124.5Zm0,12.708a5,5,0,1,1,5-5A5,5,0,0,1,132.657,137.208Zm0,0" transform="translate(-117.202 -117.202)" fill="#fff"/>
    <path id="Path_25" data-name="Path 25" d="M366.048,90.4a1.8,1.8,0,1,1-1.8-1.8A1.8,1.8,0,0,1,366.048,90.4Zm0,0" transform="translate(-340.781 -83.408)" fill="#fff"/>
  </g>
</svg>
