<svg xmlns="http://www.w3.org/2000/svg" width="30" height="28.675" viewBox="0 0 30 28.675">
  <g id="linkedin" transform="translate(0 0.668)">
    <path id="Path_26" data-name="Path 26" d="M3.638-.668a3.352,3.352,0,1,0-.084,6.686H3.6A3.353,3.353,0,1,0,3.638-.668Zm0,0" transform="translate(0 0)" fill="#fff"/>
    <path id="Path_27" data-name="Path 27" d="M8.109,198.313H14.54v19.348H8.109Zm0,0" transform="translate(-7.729 -189.653)" fill="#fff"/>
    <path id="Path_28" data-name="Path 28" d="M233.442,188.625c-3.469,0-5.8,3.26-5.8,3.26v-2.806h-6.431v19.348h6.431v-10.8a4.407,4.407,0,0,1,.212-1.57,3.52,3.52,0,0,1,3.3-2.352c2.327,0,3.258,1.774,3.258,4.375v10.351h6.43V197.333C240.845,191.39,237.673,188.625,233.442,188.625Zm0,0" transform="translate(-210.845 -180.42)" fill="#fff"/>
  </g>
</svg>
