<svg xmlns="http://www.w3.org/2000/svg" width="26.512" height="18.563" viewBox="0 0 26.512 18.563">
  <path id="youtube" d="M25.966-3.177a3.321,3.321,0,0,0-2.337-2.337c-2.075-.568-10.373-.568-10.373-.568s-8.3,0-10.373.546A3.389,3.389,0,0,0,.546-3.177,35,35,0,0,0,0,3.2,34.869,34.869,0,0,0,.546,9.576a3.322,3.322,0,0,0,2.337,2.337c2.1.568,10.373.568,10.373.568s8.3,0,10.373-.546A3.322,3.322,0,0,0,25.966,9.6a35.009,35.009,0,0,0,.546-6.377A33.222,33.222,0,0,0,25.966-3.177ZM10.614,7.174V-.775l6.9,3.975Zm0,0" transform="translate(0 6.082)" fill="#fff"/>
</svg>
