<svg xmlns="http://www.w3.org/2000/svg" width="34.423" height="24.102" viewBox="0 0 34.423 24.102">
  <path id="youtube" d="M33.714-2.311A4.312,4.312,0,0,0,30.68-5.345c-2.694-.737-13.469-.737-13.469-.737s-10.775,0-13.468.709A4.4,4.4,0,0,0,.709-2.311,45.441,45.441,0,0,0,0,5.969a45.274,45.274,0,0,0,.709,8.279,4.313,4.313,0,0,0,3.034,3.034c2.722.737,13.469.737,13.469.737s10.775,0,13.468-.709a4.313,4.313,0,0,0,3.034-3.034A45.455,45.455,0,0,0,34.423,6S34.451.383,33.714-2.311ZM13.781,11.129V.808l8.96,5.161Zm0,0" transform="translate(0 6.082)" fill="#fff"/>
</svg>
